<svg width="19" height="20" viewBox="0 0 19 20" fill="none" xmlns="http://www.w3.org/2000/svg">
<g clip-path="url(#clip0_2_35)">
<path d="M9.49137 0H15.493C15.5141 0.0134173 15.5368 0.0240918 15.5606 0.0317708C16.4212 0.199479 17.0375 0.813021 17.1609 1.68542C17.2125 2.0349 17.1692 2.39792 17.1692 2.73229C17.1957 2.75237 17.2233 2.77097 17.2518 2.78802C18.1211 3.17708 18.5196 3.85729 18.5145 4.8099C18.5057 6.53438 18.5015 8.25885 18.517 9.98333C18.5232 10.6776 18.2914 11.237 17.8036 11.726C15.3653 14.1715 12.9344 16.6243 10.5109 19.0844C10.0845 19.5172 9.64417 19.8984 9.02522 20H8.5219C7.89004 19.8911 7.44557 19.4927 7.01297 19.0505C5.64033 17.6443 4.25272 16.2589 2.87079 14.8646C2.55331 14.5427 2.23274 14.2214 1.91474 13.8958C1.53996 13.5151 1.27875 13.0505 1.33967 12.5203C1.39129 12.0687 1.20958 11.8073 0.910687 11.5521C0.772607 11.4345 0.645434 11.3044 0.530745 11.1635C0.405004 11.016 0.295926 10.8547 0.205524 10.6828C-0.18216 9.89062 -0.0128389 9.01302 0.649477 8.34427C3.10258 5.86823 5.55499 3.39149 8.00671 0.914062C8.43259 0.483854 8.87241 0.101562 9.49137 0ZM17.1976 7.40833C17.1976 6.52292 17.1976 5.6375 17.1976 4.75208C17.1976 4.2349 16.9498 3.98281 16.4413 3.98281C14.6861 3.98281 12.931 3.98594 11.1758 3.97917C11.0508 3.97451 10.9262 3.99687 10.8105 4.04475C10.6948 4.09262 10.5905 4.16491 10.5047 4.25677C7.97074 6.81962 5.43453 9.38003 2.89609 11.938C2.5435 12.2937 2.54196 12.6547 2.89247 13.0083C4.67654 14.8083 6.46079 16.6082 8.2452 18.4078C8.59778 18.7635 8.95811 18.7672 9.30656 18.4161C11.8533 15.8467 14.4 13.2785 16.9467 10.7115C17.0303 10.6313 17.0961 10.5341 17.1398 10.4264C17.1835 10.3186 17.2041 10.2028 17.2001 10.0865C17.1934 9.19219 17.1976 8.30052 17.1976 7.40833ZM2.10729 10.9016C2.15813 10.8292 2.21275 10.7597 2.27094 10.6932C4.70201 8.23837 7.13274 5.78385 9.56312 3.32969C10.0179 2.86927 10.5439 2.64635 11.1903 2.6526C12.6744 2.66354 14.158 2.65625 15.6422 2.65625H15.8817V2.10677C15.8817 1.57604 15.637 1.32812 15.1151 1.32812C13.3729 1.32812 11.6306 1.33229 9.88886 1.32396C9.75415 1.31861 9.61987 1.34258 9.49517 1.39426C9.37046 1.44594 9.25824 1.5241 9.16615 1.62344C6.64835 4.1724 4.12694 6.71806 1.60191 9.26042C1.56991 9.29271 1.53687 9.32396 1.50641 9.35781C1.25811 9.62969 1.25294 10.0031 1.50228 10.2745C1.68606 10.476 1.88016 10.6667 2.10729 10.9016Z" fill="#292D32"/>
<path d="M13.9045 5.31104C14.1635 5.31073 14.4201 5.3619 14.6595 5.46163C14.8989 5.56135 15.1166 5.70769 15.2999 5.89227C15.4833 6.07685 15.6289 6.29606 15.7283 6.5374C15.8277 6.77873 15.879 7.03745 15.8793 7.2988C15.8796 7.56014 15.8289 7.81899 15.7301 8.06055C15.6312 8.30212 15.4862 8.52168 15.3032 8.7067C15.1203 8.89172 14.903 9.03856 14.6638 9.13886C14.4246 9.23916 14.1682 9.29094 13.9091 9.29124C13.386 9.29187 12.884 9.08279 12.5137 8.71001C12.1434 8.33724 11.9349 7.83129 11.9343 7.30348C11.9337 6.77568 12.1409 6.26924 12.5104 5.89558C12.8799 5.52193 13.3814 5.31166 13.9045 5.31104ZM13.9195 6.63812C13.8325 6.63702 13.7462 6.65331 13.6655 6.68605C13.5848 6.71879 13.5113 6.76734 13.4493 6.82889C13.3873 6.89043 13.3379 6.96376 13.3042 7.04464C13.2704 7.12551 13.2528 7.21234 13.2525 7.3001C13.2551 7.47401 13.3243 7.64017 13.4455 7.76383C13.5667 7.8875 13.7306 7.95909 13.9029 7.96364C13.9899 7.96398 14.0761 7.94701 14.1565 7.91369C14.2369 7.88038 14.31 7.83137 14.3717 7.76949C14.4333 7.7076 14.4822 7.63405 14.5156 7.55306C14.549 7.47207 14.5662 7.38522 14.5663 7.29749C14.5667 7.21123 14.5503 7.12572 14.5179 7.04588C14.4855 6.96603 14.4378 6.89341 14.3776 6.83217C14.3174 6.77093 14.2458 6.72227 14.1669 6.68897C14.088 6.65567 14.0034 6.63839 13.9179 6.63812H13.9195Z" fill="#292D32"/>
</g>
<defs>
<clipPath id="clip0_2_35">
<rect width="18.5185" height="20" fill="white"/>
</clipPath>
</defs>
</svg>
